<svg xmlns="http://www.w3.org/2000/svg"><defs><symbol id="RSSfeed" viewBox="0 0 1024 1024"><title>RSSFeed</title><path class="path1" d="M136.294 750.93c-75.196 0-136.292 61.334-136.292 136.076 0 75.154 61.1 135.802 136.292 135.802 75.466 0 136.494-60.648 136.494-135.802-.002-74.742-61.024-136.076-136.494-136.076zm-136.138-403v196.258c127.784 0 247.958 49.972 338.458 140.512 90.384 90.318 140.282 211.036 140.282 339.3h197.122c-.002-372.82-303.282-676.07-675.862-676.07zm.232-347.93v196.356c455.782 0 826.756 371.334 826.756 827.644h196.856c0-564.47-459.254-1024-1023.612-1024z"/></symbol><symbol id="feedJSON" viewBox="0 0 80 80"><title>JSONfeed</title><path fill="#d2d2d2" style="fill: var(--color1, #d2d2d2)" d="M0 0h80v80h-80v-80z"></path><path fill="#616161" style="fill: var(--color2, #616161)" d="M47.482 69.221c-1.402-0.801-5.025-3.859-8.050-6.795-5.933-5.757-7.765-6.699-10.126-5.209-4.265 2.692-5.148 2.962-6.748 2.065-0.831-0.467-1.902-1.549-2.379-2.406-0.936-1.681-1.079-1.226 2.066-6.554 1.513-2.562 0.615-4.339-5.253-10.395-2.96-3.055-5.761-6.462-6.225-7.572-1.126-2.695-1.045-5.826 0.223-8.597 1.179-2.577 6.077-8.249 7.124-8.249 0.741 0 4.325 3.468 4.325 4.185 0 0.238-0.752 1.378-1.671 2.533-3.413 4.29-2.922 6.188 3.115 12.056 5.551 5.396 7.090 7.67 7.090 10.483 0 1.291-0.41 2.933-0.911 3.649-1.211 1.73-0.715 2.078 1.399 0.985 3.96-2.048 7.216-0.484 14.572 7.001 5.402 5.496 7.21 6.319 10.359 4.711 1.195-0.61 2.666-1.655 3.27-2.322l1.098-1.214 2.173 2.123c1.195 1.167 2.173 2.43 2.173 2.807 0 1.037-5.386 5.662-8.155 7.003-3.295 1.595-6.337 1.502-9.47-0.288z"></path><path fill="#fff" style="fill: var(--color3, #fff)" d="M56.8 18.293c0-2.355 1.912-4.267 4.267-4.267s4.267 1.912 4.267 4.267c0 2.355-1.912 4.267-4.267 4.267s-4.267-1.912-4.267-4.267z"></path><path fill="#fff" style="fill: var(--color3, #fff)" d="M46.72 28.267c0-2.355 1.912-4.267 4.267-4.267s4.267 1.912 4.267 4.267c0 2.355-1.912 4.267-4.267 4.267s-4.267-1.912-4.267-4.267z"></path><path fill="#fff" style="fill: var(--color3, #fff)" d="M36.693 38.4c0-2.355 1.912-4.267 4.267-4.267s4.267 1.912 4.267 4.267c0 2.355-1.912 4.267-4.267 4.267s-4.267-1.912-4.267-4.267z"></path></symbol><symbol id="news" viewBox="0 0 1024 1024"><title>News</title><path class="path1" d="M1024 429.256c0-200.926-58.792-363.938-131.482-365.226 0.292-0.006 0.578-0.030 0.872-0.030h-82.942c0 0-194.8 146.336-475.23 203.754-8.56 45.292-14.030 99.274-14.030 161.502s5.466 116.208 14.030 161.5c280.428 57.418 475.23 203.756 475.23 203.756h82.942c-0.292 0-0.578-0.024-0.872-0.032 72.696-1.288 131.482-164.298 131.482-365.224zM864.824 739.252c-9.382 0-19.532-9.742-24.746-15.548-12.63-14.064-24.792-35.96-35.188-63.328-23.256-61.232-36.066-143.31-36.066-231.124 0-87.81 12.81-169.89 36.066-231.122 10.394-27.368 22.562-49.266 35.188-63.328 5.214-5.812 15.364-15.552 24.746-15.552 9.38 0 19.536 9.744 24.744 15.552 12.634 14.064 24.796 35.958 35.188 63.328 23.258 61.23 36.068 143.312 36.068 231.122 0 87.804-12.81 169.888-36.068 231.124-10.39 27.368-22.562 49.264-35.188 63.328-5.208 5.806-15.36 15.548-24.744 15.548zM251.812 429.256c0-51.95 3.81-102.43 11.052-149.094-47.372 6.554-88.942 10.324-140.34 10.324-67.058 0-67.058 0-67.058 0l-55.466 94.686v88.17l55.46 94.686c0 0 0 0 67.060 0 51.398 0 92.968 3.774 140.34 10.324-7.236-46.664-11.048-97.146-11.048-149.096zM368.15 642.172l-127.998-24.51 81.842 321.544c4.236 16.634 20.744 25.038 36.686 18.654l118.556-47.452c15.944-6.376 22.328-23.964 14.196-39.084l-123.282-229.152zM864.824 548.73c-3.618 0-7.528-3.754-9.538-5.992-4.87-5.42-9.556-13.86-13.562-24.408-8.962-23.6-13.9-55.234-13.9-89.078s4.938-65.478 13.9-89.078c4.006-10.548 8.696-18.988 13.562-24.408 2.010-2.24 5.92-5.994 9.538-5.994 3.616 0 7.53 3.756 9.538 5.994 4.87 5.42 9.556 13.858 13.56 24.408 8.964 23.598 13.902 55.234 13.902 89.078 0 33.842-4.938 65.478-13.902 89.078-4.004 10.548-8.696 18.988-13.56 24.408-2.008 2.238-5.92 5.992-9.538 5.992z"></path></symbol></defs></svg>